<svg height="512" viewBox="0 0 56 56" width="512" xmlns="http://www.w3.org/2000/svg"><g id="Page-1" fill="none" fill-rule="evenodd"><g id="135---Upload-File" fill="rgb(180,180,180)" fill-rule="nonzero"><path id="Shape" d="m38 20c1.1045695 0 2 .8954305 2 2v20.5c0 .2761424.2238576.5.5.5h5c.2761424 0 .5-.2238576.5-.5v-20.5c0-1.1045695.8954305-2 2-2h1.953c.189386 0 .3625176-.1070012.4472136-.2763932s.066418-.372098-.0472136-.5236068l-6.953-9.045c-.0946642-.1228034-.2409452-.19473946-.396-.19473946s-.3013358.07193606-.396.19473946l-6.958 9.045c-.1136316.1515088-.1319096.3542148-.0472136.5236068s.2578276.2763932.4472136.2763932z"/><path id="Shape" d="m52.342 45.849c-.2755719-.0921711-.4974242-.2996498-.6078202-.5684399-.1103959-.2687902-.0984167-.5723068.0328202-.8315601.643478-1.2607307.9802767-2.6555501.983-4.071-.0208119-3.3354536-1.835761-6.4013802-4.75-8.024v10.646c0 1.1045695-.8954305 2-2 2h-6c-1.1045695 0-2-.8954305-2-2v-10.731c-1.5989968.8757248-2.916693 2.1871792-3.8 3.782-.1365135.2490349-.372476.4282792-.649.493-.276328.0631741-.5664844.0076817-.8-.153-1.1477524-.8081119-2.5172977-1.2415742-3.921-1.241-3.5460371-.0794177-6.488332 2.7242585-6.58 6.27.000588 1.0657405.2827796 2.1124024.818 3.034.1467115.2560364.1728485.5637991.071415.8409094-.1014336.2771103-.3200803.4952723-.597415.5960906-2.0992213.7060745-3.520843 2.6643164-3.542 4.879-.0023143.6352996.1189361 1.2649868.357 1.854.8741299 2.0616217 2.9037892 3.3939433 5.143 3.376h26c2.9607998.0688324 5.4198338-2.2694854 5.5-5.23-.0346274-2.2561552-1.5075481-4.2376321-3.658-4.921z"/><path id="Shape" d="m11 8v-6.586l-9.586 9.586h6.586c1.65685425 0 3-1.34314575 3-3z"/><path id="Shape" d="m20.852 44.461c-.3948157-.9653152-.5985811-1.9980662-.6-3.041.092475-4.6500007 3.9297445-8.3486277 8.58-8.27 1.4508491.0009225 2.8788162.3616938 4.156 1.05 1.2459557-1.8316063 2.9830748-3.2748153 5.012-4.164v-8.036h-2.969c-.762106.0000751-1.4580189-.4329768-1.7945895-1.1167355-.3365706-.6837586-.2552952-1.4993706.2095895-2.1032645l7.969-10.359c.1591429-.20007406.3584195-.36460498.585-.483v-4.938c0-1.65685425-1.3431458-3-3-3h-26v8c-.0033061 2.7600532-2.2399468 4.9966939-5 5h-8v36c0 1.6568542 1.34314575 3 3 3h14.112c-.0735949-.4058864-.1110749-.8174965-.112-1.23.0306428-2.650047 1.5087342-5.0709396 3.852-6.309zm16.148-42.461h2c.5522847 0 1 .44771525 1 1s-.4477153 1-1 1h-2c-.5522847 0-1-.44771525-1-1s.4477153-1 1-1zm-10 0h6c.5522847 0 1 .44771525 1 1s-.4477153 1-1 1h-6c-.5522847 0-1-.44771525-1-1s.4477153-1 1-1zm-6 14h8c.5522847 0 1 .4477153 1 1s-.4477153 1-1 1h-8c-.5522847 0-1-.4477153-1-1s.4477153-1 1-1zm-14 0h9c.5522847 0 1 .4477153 1 1s-.4477153 1-1 1h-9c-.55228475 0-1-.4477153-1-1s.44771525-1 1-1zm0 5h15c.5522847 0 1 .4477153 1 1s-.4477153 1-1 1h-15c-.55228475 0-1-.4477153-1-1s.44771525-1 1-1zm9 7h-9c-.55228475 0-1-.4477153-1-1s.44771525-1 1-1h9c.5522847 0 1 .4477153 1 1s-.4477153 1-1 1z"/></g></g></svg>